# xmcd CD database file
#
# Track frame offsets:
#	150
#	17225
#	36672
#	58165
#	73537
#	88905
#	107520
#	125727
#	136375
#	158660
#
# Disc length: 2270 seconds
#
# Revision: 1
# Processed by: cddbd v1.5PL3 Copyright (c) Steve Scherf et al.
# Submitted via: CDex 1.51
#
DISCID=9008dc0a
DTITLE=FREIGHT TRAIN JANE - Hallucination
DYEAR=1994
DGENRE=Hard Rock
TTITLE0=Get Used To It
TTITLE1=Hallucination
TTITLE2=American Fame
TTITLE3=Buy A Gun
TTITLE4=Bye Bye Love
TTITLE5=You
TTITLE6=Woodoo
TTITLE7=No More
TTITLE8=Welcome To My Love
TTITLE9=Lean Mean Woman Machine
EXTD=YEAR: 1994
EXTT0=
EXTT1=
EXTT2=
EXTT3=
EXTT4=
EXTT5=
EXTT6=
EXTT7=
EXTT8=
EXTT9=
PLAYORDER=
